#!OML:ASF F:\VICON\USERDATA\INSTALL\rory3\rory3.ASF
:FULLY-SPECIFIED
:DEGREES
62
root 0.434114 17.7014 -16.9251 0.136718 -7.48836 -6.07492
lowerback 10.4846 2.47906 5.51027
upperback -0.0157083 4.08876 2.07382
thorax -5.66869 1.88211 -1.531
lowerneck -15.8167 -3.11466 -1.13133
upperneck 20.3779 -4.05503 0.0763237
head 9.02755 -1.97879 -0.286362
rclavicle 7.30534e-015 -5.96354e-016
rhumerus -20.4631 -7.59026 -82.7596
rradius 35.0194
rwrist -2.89178
rhand -20.5491 22.9177
rfingers 7.12502
rthumb 5.80966 -6.98269
lclavicle 7.30534e-015 -5.96354e-016
lhumerus -38.0611 9.03717 80.6772
lradius 19.2589
lwrist 0.107666
lhand -29.1803 19.227
lfingers 7.12502
lthumb -2.52587 49.1918
rfemur 10.0412 6.18002 33.2487
rtibia 30.1009
rfoot -17.1507 -3.62993
rtoes -7.73604
lfemur -27.6547 -1.22394 -15.0071
ltibia 22.1771
lfoot -2.18958 0.943524
ltoes -0.590187
63
root 0.437263 17.6972 -16.7089 -0.113961 -7.35384 -5.86834
lowerback 10.7459 2.47702 5.18723
upperback -0.211056 4.07656 2.06825
thorax -6.04523 1.87165 -1.37563
lowerneck -15.5449 -3.19892 -1.06682
upperneck 20.6689 -4.14766 -0.133944
head 9.07206 -2.04036 -0.378378
rclavicle -2.95319e-014 -5.76476e-015
rhumerus -21.2624 -7.66683 -82.6148
rradius 35.1069
rwrist -2.73309
rhand -20.6122 23.1715
rfingers 7.12502
rthumb 5.74874 -6.73047
lclavicle -2.95319e-014 -5.76476e-015
lhumerus -38.5107 9.43592 80.3453
lradius 18.8732
lwrist -0.502674
lhand -29.1115 18.9938
lfingers 7.12502
lthumb -2.45943 48.9594
rfemur 10.0936 6.02295 32.9694
rtibia 31.553
rfoot -16.0466 -3.13506
rtoes -8.52468
lfemur -27.5386 -1.51907 -15.2288
ltibia 23.0878
lfoot -2.13402 0.416963
ltoes -1.48219
64
root 0.441384 17.7234 -16.4861 -0.329366 -7.08688 -5.38181
lowerback 10.8104 2.48694 4.66214
upperback -0.301923 4.02559 1.94466
thorax -6.20657 1.85591 -1.21192
lowerneck -15.6828 -3.19239 -0.965802
upperneck 21.1151 -4.15797 -0.179654
head 9.24853 -2.03939 -0.419966
rclavicle -1.38528e-015 -1.39149e-015
rhumerus -21.7153 -8.23185 -82.498
rradius 34.9115
rwrist -2.41814
rhand -20.5061 23.3675
rfingers 7.12502
rthumb 5.85123 -6.53169
lclavicle -1.38528e-015 -1.39149e-015
lhumerus -38.6234 9.46699 80.2133
lradius 18.382
lwrist -0.813007
lhand -29.0762 19.8818
lfingers 7.12502
lthumb -2.42528 49.8478
rfemur 9.96933 5.79234 32.366
rtibia 33.161
rfoot -14.7176 -2.65133
rtoes -9.45369
lfemur -27.1715 -1.79911 -15.83
ltibia 23.754
lfoot -2.40039 -0.908508
ltoes -2.23953
65
root 0.445203 17.742 -16.266 -0.575269 -6.61785 -4.84302
lowerback 10.6316 2.43697 4.20034
upperback -0.185068 3.87216 1.74112
thorax -6.00407 1.799 -1.13258
lowerneck -15.754 -3.21471 -0.878918
upperneck 21.1506 -4.23917 -0.0616511
head 9.27508 -2.0564 -0.40589
rclavicle -9.62863e-015 -2.55438e-014
rhumerus -21.8681 -8.78611 -82.4531
rradius 34.6465
rwrist -2.27876
rhand -20.2268 23.4421
rfingers 7.12502
rthumb 6.12081 -6.44946
lclavicle -9.62863e-015 -2.55438e-014
lhumerus -38.3175 9.68553 79.9707
lradius 17.8483
lwrist -1.2272
lhand -28.9521 21.542
lfingers 7.12502
lthumb -2.30545 51.5092
rfemur 9.6917 5.35526 31.6967
rtibia 34.9642
rfoot -13.0846 -2.27655
rtoes -10.5722
lfemur -26.8177 -2.02551 -16.5609
ltibia 24.4274
lfoot -2.2029 -3.55129
ltoes -2.24379
66
root 0.442928 17.7534 -16.0443 -0.845913 -6.11142 -4.33501
lowerback 10.4417 2.38526 3.6969
upperback -0.0377897 3.71482 1.56918
thorax -5.76758 1.74164 -0.995181
lowerneck -15.7463 -3.33717 -0.859889
upperneck 21.0387 -4.43961 0.0508912
head 9.23787 -2.13644 -0.394156
rclavicle 3.07681e-014 5.06901e-015
rhumerus -22.0489 -9.32547 -82.4246
rradius 34.3686
rwrist -2.14503
rhand -20.3931 23.3485
rfingers 7.12502
rthumb 5.96028 -6.54768
lclavicle 3.07681e-014 5.06901e-015
lhumerus -37.9883 10.2172 79.5602
lradius 17.4088
lwrist -2.21755
lhand -28.2285 23.093
lfingers 7.12502
lthumb -1.60657 53.0667
rfemur 9.29007 4.78598 31.0436
rtibia 36.9991
rfoot -11.0435 -1.88695
rtoes -10.8596
lfemur -26.5042 -2.24326 -17.2666
ltibia 25.1659
lfoot -1.44625 -5.85402
ltoes 1.6736
67
root 0.44476 17.765 -15.8231 -1.10973 -5.77518 -3.92604
lowerback 10.4497 2.35666 3.27945
upperback -0.011309 3.62005 1.47125
thorax -5.76658 1.70611 -0.850621
lowerneck -15.8356 -3.43422 -1.05975
upperneck 21.2798 -4.56787 0.226525
head 9.3488 -2.19033 -0.322193
rclavicle -1.96486e-014 -1.02374e-014
rhumerus -22.3626 -9.94719 -82.2735
rradius 33.9596
rwrist -1.75121
rhand -20.2199 23.391
rfingers 7.12502
rthumb 6.12749 -6.50037
lclavicle -1.96486e-014 -1.02374e-014
lhumerus -37.875 10.3675 79.4481
lradius 17.2761
lwrist -2.74998
lhand -27.6847 25.0783
lfingers 7.12502
lthumb -1.08135 55.0553
rfemur 8.67674 4.1327 30.3311
rtibia 39.3075
rfoot -8.48318 -1.26817
rtoes -11.1096
lfemur -26.1149 -1.84899 -18.0775
ltibia 26.1488
lfoot -1.16593 -6.72193
ltoes 3.94597
68
root 0.45244 17.7717 -15.6095 -1.2229 -5.47514 -3.62436
lowerback 10.287 2.27709 2.9375
upperback 0.0313926 3.46327 1.44485
thorax -5.65353 1.64117 -0.655765
lowerneck -15.9852 -3.44416 -1.23791
upperneck 21.5016 -4.57422 0.379668
head 9.46293 -2.18794 -0.246797
rclavicle 9.05091e-015 8.94531e-015
rhumerus -22.6449 -10.1427 -82.1421
rradius 33.6793
rwrist -1.62102
rhand -19.7919 23.3286
rfingers 7.12502
rthumb 6.54074 -6.55038
lclavicle 9.05091e-015 8.94531e-015
lhumerus -37.8039 10.8367 79.2014
lradius 16.7853
lwrist -2.80312
lhand -28.3416 22.874
lfingers 7.12502
lthumb -1.71584 52.8468
rfemur 7.67297 3.42201 29.6195
rtibia 41.7685
rfoot -5.17007 -0.282854
rtoes -7.55107
lfemur -25.8234 -1.19587 -18.8353
ltibia 27.2357
lfoot -1.68959 -6.46751
ltoes 2.59788
69
root 0.457979 17.7607 -15.4072 -1.32036 -5.14785 -3.72484
lowerback 10.382 2.20561 3.00421
upperback -0.0103465 3.38488 1.49712
thorax -5.75275 1.59933 -0.632365
lowerneck -16.0312 -3.49349 -1.28566
upperneck 21.5743 -4.6505 0.458589
head 9.50101 -2.21749 -0.22339
rclavicle 1.77229e-014 1.14301e-014
rhumerus -23.1502 -10.5113 -81.9386
rradius 33.4632
rwrist -1.27426
rhand -19.8523 23.2645
rfingers 7.12502
rthumb 6.48239 -6.61625
lclavicle 1.77229e-014 1.14301e-014
lhumerus -37.8518 10.9876 79.0652
lradius 16.6855
lwrist -2.88222
lhand -28.4168 21.3286
lfingers 7.12502
lthumb -1.78842 51.3009
rfemur 6.50861 2.80223 29.4595
rtibia 44.3158
rfoot -0.674845 0.37142
rtoes -3.88734
lfemur -25.6696 -0.739513 -19.0125
ltibia 28.3716
lfoot -2.04515 -5.60395
ltoes 2.36033
70
root 0.465723 17.76 -15.1939 -1.42279 -5.1551 -3.83178
lowerback 10.3832 2.25264 3.11788
upperback -0.0851278 3.46597 1.52995
thorax -5.82557 1.63452 -0.675386
lowerneck -15.7817 -3.59287 -1.31452
upperneck 21.5184 -4.78776 0.47396
head 9.43749 -2.28412 -0.225345
rclavicle -2.27608e-014 -9.74045e-015
rhumerus -23.8055 -10.7479 -81.7546
rradius 33.2713
rwrist -1.11631
rhand -19.8184 23.0416
rfingers 7.12502
rthumb 6.51511 -6.83818
lclavicle -2.27608e-014 -9.74045e-015
lhumerus -37.9516 11.1838 78.8851
lradius 16.6664
lwrist -3.2915
lhand -28.553 19.7867
lfingers 7.12502
lthumb -1.91996 49.7578
rfemur 5.36785 2.48012 29.2919
rtibia 46.8876
rfoot 3.16386 0.81929
rtoes -1.51059
lfemur -25.3271 -0.200997 -19.1229
ltibia 29.1544
lfoot -2.63235 -6.78972
ltoes 3.4114
71
root 0.478189 17.764 -14.979 -1.62398 -5.36011 -3.64683
lowerback 10.4435 2.40154 3.09003
upperback -0.145078 3.65502 1.35792
thorax -5.90708 1.72362 -0.871807
lowerneck -15.2881 -3.74422 -1.14431
upperneck 21.2923 -5.0514 0.502933
head 9.2654 -2.39528 -0.263622
rclavicle -2.75627e-014 7.95139e-016
rhumerus -24.452 -11.251 -81.6594
rradius 33.0345
rwrist -0.895938
rhand -19.5012 23.0233
rfingers 7.12502
rthumb 6.82137 -6.84684
lclavicle -2.75627e-014 7.95139e-016
lhumerus -38.009 10.9303 78.6733
lradius 16.6533
lwrist -3.40772
lhand -28.3473 19.9166
lfingers 7.12502
lthumb -1.7213 49.8894
rfemur 4.21024 2.22115 28.6995
rtibia 49.4657
rfoot 6.19436 1.32962
rtoes -1.15788
lfemur -24.8678 0.293539 -19.5235
ltibia 29.905
lfoot -3.05991 -7.67705
ltoes 6.35352
72
root 0.484177 17.772 -14.7759 -1.89469 -5.43685 -3.29663
lowerback 11.0375 2.46837 2.77391
upperback -0.321174 3.72501 1.21024
thorax -6.43596 1.75329 -0.895247
lowerneck -15.3796 -3.78104 -1.13673
upperneck 21.6535 -5.13491 0.59644
head 9.41163 -2.41938 -0.250008
rclavicle 2.23571e-014 7.65321e-015
rhumerus -25.1872 -11.4909 -81.5573
rradius 32.9251
rwrist -0.59185
rhand -19.0589 23.155
rfingers 7.12502
rthumb 7.24826 -6.70081
lclavicle 2.23571e-014 7.65321e-015
lhumerus -38.3402 10.5214 78.6242
lradius 16.9431
lwrist -3.0805
lhand -28.1286 20.6459
lfingers 7.12502
lthumb -1.51015 50.6203
rfemur 2.90832 2.01376 28.0717
rtibia 52.0617
rfoot 9.14961 1.46599
rtoes 1.58062
lfemur -24.3493 0.246389 -19.9049
ltibia 30.3287
lfoot -3.07353 -7.80921
ltoes 11.9954
73
root 0.4901 17.7958 -14.579 -2.07197 -5.4155 -2.83939
lowerback 10.7928 2.42418 2.26144
upperback -0.0973362 3.58275 1.17233
thorax -6.09347 1.70699 -0.608219
lowerneck -15.503 -3.68907 -1.23828
upperneck 21.635 -4.9875 0.634013
head 9.43081 -2.35404 -0.204147
rclavicle -9.98272e-015 -1.58034e-014
rhumerus -25.1433 -11.2118 -81.5989
rradius 32.6344
rwrist -0.434967
rhand -18.6262 23.0661
rfingers 7.12502
rthumb 7.66592 -6.77492
lclavicle -9.98272e-015 -1.58034e-014
lhumerus -38.1908 10.6812 78.7258
lradius 17.4533
lwrist -2.87242
lhand -27.3716 22.4069
lfingers 7.12502
lthumb -0.77898 52.3852
rfemur 1.43607 1.75298 27.3212
rtibia 54.6627
rfoot 12.6364 1.51501
rtoes 8.36286
lfemur -23.3182 0.70386 -20.6992
ltibia 30.6034
lfoot -4.79115 -7.37129
ltoes 5.60616
74
root 0.496733 17.8096 -14.38 -2.25682 -5.41245 -2.43416
lowerback 10.8064 2.42374 1.89602
upperback -0.0249747 3.52724 1.05321
thorax -6.03992 1.69015 -0.518667
lowerneck -15.6205 -3.65416 -1.18839
upperneck 21.6756 -4.95288 0.639793
head 9.46528 -2.332 -0.208899
rclavicle 1.00945e-014 3.97569e-015
rhumerus -25.3488 -11.3957 -81.57
rradius 32.203
rwrist 0.00761242
rhand -18.3387 23.2506
rfingers 7.12502
rthumb 7.94344 -6.58017
lclavicle 1.00945e-014 3.97569e-015
lhumerus -38.1453 10.4805 78.7956
lradius 18.0238
lwrist -2.55756
lhand -26.4959 23.6941
lfingers 7.12502
lthumb 0.0668052 53.6738
rfemur -0.0466471 1.54805 26.6444
rtibia 57.2865
rfoot 16.5755 1.36644
rtoes 14.036
lfemur -22.3342 0.783716 -21.3376
ltibia 30.547
lfoot -5.77402 -7.0393
ltoes 2.81103
75
root 0.502012 17.8298 -14.189 -2.44726 -5.27326 -1.68532
lowerback 11.0153 2.40184 1.14178
upperback 0.0439041 3.3923 0.839666
thorax -6.11738 1.64232 -0.307001
lowerneck -15.9351 -3.60245 -1.07565
upperneck 21.6917 -4.90563 0.632034
head 9.52572 -2.29914 -0.230725
rclavicle -1.48281e-014 -4.67144e-015
rhumerus -25.3959 -11.4494 -81.579
rradius 31.7409
rwrist 0.214348
rhand -18.3137 23.4255
rfingers 7.12502
rthumb 7.96759 -6.4043
lclavicle -1.48281e-014 -4.67144e-015
lhumerus -37.9121 10.0625 79.018
lradius 18.3652
lwrist -1.67819
lhand -26.6328 23.0228
lfingers 7.12502
lthumb -0.0653915 53.0025
rfemur -1.64124 1.27225 25.6071
rtibia 59.8635
rfoot 20.2047 0.73882
rtoes 15.368
lfemur -21.4665 0.59045 -22.2927
ltibia 30.5104
lfoot -6.39106 -6.95915
ltoes 2.98822
